<?xml version="1.0" encoding="UTF-8"?>
<svg id="Layer_2" data-name="Layer 2" xmlns="http://www.w3.org/2000/svg" viewBox="0 0 408.8 408.8">
  <defs>
    <style>
      .cls-1 {
        fill: #fff;
      }
    </style>
  </defs>
  <g id="Layer_1-2" data-name="Layer 1">
    <g>
      <path class="cls-1" d="M26.35,26.35c-.39,83-.39,166.11,0,249.11H0V26.35h26.35Z"/>
      <path class="cls-1" d="M382.45,26.35c8.77.04,17.58-.03,26.35,0v249.11c-8.77.03-17.58-.04-26.35,0,.39-83,.39-166.11,0-249.11Z"/>
      <path class="cls-1" d="M178.05,328.96c-.02,8.77.01,17.58,0,26.35-9.04.01-18.11-.03-27.15,0,.02-8.77-.01-17.58,0-26.35,9.04-.01,18.11.03,27.15,0Z"/>
      <path class="cls-1" d="M204.4,301.81c-.02,9.04.01,18.11,0,27.15-8.77,0-17.58-.03-26.35,0,.02-9.04-.01-18.11,0-27.15,8.77-.02,17.58.05,26.35,0Z"/>
      <path class="cls-1" d="M150.91,355.31c-.02,9.04.01,18.11,0,27.15-8.77-.01-17.58,0-26.35,0,0-9.04,0-18.11,0-27.15,8.77,0,17.58.03,26.35,0Z"/>
      <path class="cls-1" d="M26.35,26.35c.04-8.77-.03-17.58,0-26.35h356.1c.03,8.77-.04,17.58,0,26.35-118.68-.56-237.43,0-356.1,0Z"/>
      <path class="cls-1" d="M26.35,275.46h71.06v105.79c.7,1.14,1.59,1.1,2.75,1.24,6.94.81,17.04-.04,24.39-.04v26.35h-53.5v-106.99H26.35c-.03-8.77.04-17.58,0-26.35Z"/>
      <path class="cls-1" d="M382.45,275.46c-.04,8.77.03,17.58,0,26.35-59.34.2-118.72-.28-178.06,0,.02-8.77-.01-17.58,0-26.35,59.34-.2,118.72.28,178.06,0Z"/>
      <polygon class="cls-1" points="133.34 124.56 133.34 178.05 81.04 178.05 79.84 176.85 79.84 124.56 133.34 124.56"/>
      <polygon class="cls-1" points="328.96 124.56 328.96 176.85 327.76 178.05 275.46 178.05 275.46 124.56 328.96 124.56"/>
      <rect class="cls-1" x="178.05" y="124.56" width="52.7" height="53.5"/>
    </g>
  </g>
</svg>