<?xml version="1.0" encoding="UTF-8"?>
<svg id="Layer_2" data-name="Layer 2" xmlns="http://www.w3.org/2000/svg" viewBox="0 0 37.85 34.97">
  <defs>
    <style>
      .cls-1 {
        fill: #fff;
      }
    </style>
  </defs>
  <g id="Layer_1-2" data-name="Layer 1">
    <g>
      <path class="cls-1" d="M20.37,3.19c.16-.52,2.36-.32,2.89-.22l.19,2.79,2.79.19.09,2.89h2.88v2.88h2.88v2.88h2.88v-2.88h2.88v11.52h-2.88v-2.88h-2.88v2.88l-2.79.19-.09,2.89h-2.88v2.88h-2.88l-.19,2.79-2.89.09V3.19Z"/>
      <path class="cls-1" d="M8.85,2.88c0-.96,0-1.92,0-2.88h2.88v2.88c-.96,0-1.92,0-2.88,0,0,.96,0,1.92,0,2.88-.96.01-1.92-.02-2.88,0-.02.96.1,1.94-.09,2.89-.24.35-2.41.18-3,.19-.07,5.81-.08,11.67,0,17.49,1.03.01,2.06,0,3.09,0,.01.96-.02,1.92,0,2.88.96.02,1.92-.02,2.88,0,0,.96,0,1.92,0,2.88.96,0,1.92,0,2.88,0v2.88h-2.88c0-.96,0-1.92,0-2.88-.96,0-1.92,0-2.88,0-.01-.96.02-1.92,0-2.88-.96-.02-1.94.1-2.89-.09-.34-.24-.19-2.23-.19-2.79-.91-.01-2.19.24-2.88-.31V8.85c.96-.02,1.92.02,2.88,0,0-.58-.15-2.76.19-3,.95-.19,1.93-.07,2.89-.09.02-.96-.02-1.92,0-2.88.96,0,1.92,0,2.88,0Z"/>
      <path class="cls-1" d="M11.73,8.85c.02-.96-.1-1.94.09-2.89l2.6-.1.19,3c-.96.01-1.92-.02-2.88,0-.02.96.02,1.92,0,2.88-.96,0-1.92,0-2.88,0-.04,3.83-.03,7.69,0,11.52.56,0,2.55-.15,2.79.19.19.95.07,1.93.09,2.89.96,0,1.92,0,2.88,0v2.88h-2.88c-.02-.96.02-1.92,0-2.88-.96,0-1.92,0-2.88,0,0-1.03,0-2.06,0-3.09-.96-.02-1.92.01-2.88,0v-11.52c.96,0,1.92,0,2.88,0,0-.96,0-1.92,0-2.88.96-.01,1.92.02,2.88,0Z"/>
      <path class="cls-1" d="M14.61,14.61c0-.96,0-1.92,0-2.88h2.88v2.88c-.96,0-1.92,0-2.88,0-.02,1.91-.02,3.85,0,5.76.96,0,1.92,0,2.88,0v2.88h-2.88c0-.96,0-1.92,0-2.88-.96,0-1.92,0-2.88,0v-5.76c.96,0,1.92,0,2.88,0Z"/>
    </g>
  </g>
</svg>