<?xml version="1.0" encoding="UTF-8"?>
<svg id="Layer_2" data-name="Layer 2" xmlns="http://www.w3.org/2000/svg" viewBox="0 0 147.03 184.01">
  <defs>
    <style>
      .cls-1 {
        fill: #fff;
      }
    </style>
  </defs>
  <g id="Layer_1-2" data-name="Layer 1">
    <g>
      <path class="cls-1" d="M98.02,0h13.01s-.01,12.01-.01,12.01h12.01s-.01,12-.01,12h12.01s-.01,12-.01,12l12.02.57v12.43s-12.02-.01-12.02-.01v12.01s-12-.01-12-.01v12.01s-12-.01-12-.01v12.01s-12.99,0-12.99,0v-24H25.52c-3.07,1.56-.65,11.16-1.49,12.01h-12.01s0,24.99,0,24.99H.02v-49h12s1.13-11.86,1.13-11.86l11.87-1.13v-12s72.99,0,72.99,0V0Z"/>
      <path class="cls-1" d="M147.02,86.01v49h-12.01s.01,12.01.01,12.01h-12.01s0,11.99,0,11.99H49.02v25h-12.01s-.46-12.05-.46-12.05l-11.54.05-.43-12.07-12.57-.93v-12.01s-12,.01-12,.01v-11.43s12.01-.57,12.01-.57l1.13-11.87,11.87-1.13v-12.01s12,.01,12,.01v-12.01s11.99,0,11.99,0v24h74v-12.01s12,0,12,0v-20.5c0-.27,1.19-3.44,1.62-3.56l10.38.06Z"/>
    </g>
  </g>
</svg>